<?xml version="1.0" encoding="UTF-8"?> <svg xmlns="http://www.w3.org/2000/svg" width="300" height="74" viewBox="0 0 300 74" fill="none"><path d="M170.87 56.981C170.198 57.0263 169.524 56.9373 168.887 56.7193C168.25 56.5012 167.663 56.1584 167.16 55.711L167.75 54.4211C168.09 56.0811 172.88 56.601 172.95 54.601C172.95 53.951 172.45 53.671 171.89 53.511C170.73 53.171 168.89 53.281 168.05 52.351C166.58 50.221 168.88 48.7811 171.05 48.9511C172.3 48.8511 173.26 49.431 174.39 49.711L173.73 50.991C173.14 49.821 169.28 49.361 169.09 50.991C169.09 51.581 169.55 51.791 170.09 51.991C170.78 52.161 172.25 52.291 172.9 52.511C173.243 52.6069 173.557 52.7856 173.814 53.0313C174.071 53.277 174.264 53.5822 174.376 53.9201C174.488 54.258 174.514 54.6181 174.454 54.9688C174.394 55.3195 174.248 55.6499 174.03 55.9311C173.615 56.3309 173.116 56.6326 172.569 56.8143C172.022 56.996 171.442 57.0529 170.87 56.981Z" fill="#52545B"></path><path d="M176.511 56.811H176.121C176.351 56.621 176.331 56.411 176.351 56.041V51.231C176.351 50.861 176.351 50.6509 176.121 50.4609H181.801C181.741 50.8581 181.661 51.252 181.561 51.641C181.371 51.381 181.111 51.411 180.721 51.401H177.651V53.131H180.231C180.591 53.131 180.801 53.131 180.991 52.921V54.201C180.801 53.991 180.591 54.011 180.231 53.991H177.651V55.851H180.751C181.141 55.851 181.391 55.851 181.581 55.621C181.581 55.871 181.731 56.551 181.761 56.811H176.511Z" fill="#52545B"></path><path d="M186.804 56.9423C183.804 57.1723 182.394 54.2223 183.624 51.7823C184.814 49.7823 187.724 50.1823 189.624 50.8923L188.974 52.0822H188.924C188.334 51.2022 186.524 51.1822 185.634 51.5922C184.464 52.0922 184.344 53.8223 184.834 54.8223C185.634 56.3323 188.454 56.1723 189.174 54.6523L189.764 55.7823C189.379 56.1726 188.917 56.4777 188.407 56.6775C187.897 56.8774 187.351 56.9677 186.804 56.9423Z" fill="#52545B"></path><path d="M191.623 56.8125H191.223C191.463 56.6225 191.433 56.4125 191.453 56.0425V51.2324C191.453 50.8624 191.453 50.6524 191.223 50.4624C192.643 50.5424 195.643 50.1825 196.753 50.9425C197.046 51.1352 197.272 51.415 197.398 51.7427C197.525 52.0704 197.545 52.4294 197.457 52.7693C197.369 53.1092 197.176 53.4128 196.906 53.6376C196.636 53.8624 196.303 53.997 195.953 54.0225C196.241 54.0595 196.511 54.1868 196.723 54.3861C196.935 54.5855 197.078 54.8467 197.133 55.1325C197.263 55.5425 197.333 56.5624 197.643 56.8524H196.093L195.843 55.4525C195.603 54.1225 193.893 54.6625 192.753 54.5525V56.0625C192.753 56.4325 192.753 56.6424 192.973 56.8324L191.623 56.8125ZM194.623 53.5824C195.893 53.7224 196.723 52.5125 195.743 51.6625C195.213 51.2625 193.473 51.4425 192.743 51.4025V53.5824H194.623Z" fill="#52545B"></path><path d="M199.741 56.811H199.352C199.592 56.621 199.562 56.411 199.582 56.041V51.231C199.582 50.861 199.582 50.6509 199.352 50.4609H205.052C205.002 50.7309 204.882 51.381 204.802 51.641C204.622 51.381 204.351 51.411 203.961 51.401H200.892V53.131H203.471C203.831 53.131 204.041 53.131 204.231 52.921V54.201C204.041 53.991 203.831 54.011 203.471 53.991H200.892V55.851H203.991C204.391 55.851 204.632 55.851 204.832 55.621L205.021 56.811H199.741Z" fill="#52545B"></path><path d="M208.804 56.811H208.414C208.664 56.631 208.614 56.411 208.634 56.041V51.511H206.994C206.654 51.511 206.464 51.5109 206.314 51.7109C206.314 51.5009 206.134 50.7109 206.094 50.4609H212.614C212.554 50.7109 212.414 51.461 212.364 51.741C212.214 51.501 212.004 51.551 211.674 51.531H210.024V56.061C210.024 56.431 210.024 56.6409 210.254 56.8309L208.804 56.811Z" fill="#52545B"></path><path d="M220.03 56.2113C220.16 56.5013 220.2 56.6514 220.41 56.7914H218.72C219.03 56.5514 218.46 55.7014 218.39 55.3914H215.09C215.02 55.6814 214.39 56.6114 214.78 56.7914H213.07C213.4 56.7914 215.41 51.3414 215.62 51.0314C215.83 50.7214 215.81 50.5814 215.62 50.4414H217.94C217.77 50.5914 217.84 50.7614 217.94 51.0314L220.03 56.2113ZM216.68 51.2113L215.4 54.4913H218.02L216.68 51.2113Z" fill="#52545B"></path><path d="M222.05 56.8125H221.66C221.89 56.6225 221.87 56.4125 221.89 56.0425V51.2324C221.89 50.8624 221.89 50.6524 221.66 50.4624C223.08 50.5424 226.07 50.1825 227.19 50.9425C227.484 51.1352 227.709 51.415 227.836 51.7427C227.962 52.0704 227.982 52.4294 227.894 52.7693C227.806 53.1092 227.613 53.4128 227.344 53.6376C227.074 53.8624 226.74 53.997 226.39 54.0225C226.678 54.0585 226.947 54.1857 227.157 54.3854C227.368 54.5851 227.509 54.8468 227.56 55.1325C227.7 55.5425 227.76 56.5624 228.08 56.8524H226.53L226.28 55.4525C226.03 54.1225 224.28 54.6625 223.19 54.5525V56.0625C223.19 56.4325 223.19 56.6424 223.41 56.8324L222.05 56.8125ZM225.05 53.5824C226.33 53.7224 227.15 52.5125 226.18 51.6625C225.64 51.2625 223.91 51.4425 223.18 51.4025V53.5824H225.05Z" fill="#52545B"></path><path d="M230.193 56.811H229.793C230.033 56.621 230.013 56.411 230.023 56.041V51.231C230.023 50.861 230.023 50.6509 229.793 50.4609H231.573C231.333 50.6509 231.353 50.861 231.343 51.231V56.041C231.343 56.411 231.343 56.621 231.573 56.811H230.193Z" fill="#52545B"></path><path d="M239.801 56.2113C239.941 56.5013 239.981 56.6514 240.191 56.7914H238.491C238.801 56.5514 238.231 55.7014 238.161 55.3914H234.801C234.731 55.6814 234.111 56.6114 234.491 56.7914H232.801C233.121 56.7914 235.141 51.3414 235.351 51.0314C235.561 50.7214 235.531 50.5814 235.351 50.4414H237.671C237.491 50.5914 237.561 50.7614 237.671 51.0314L239.801 56.2113ZM236.461 51.2113L235.171 54.4913H237.801L236.461 51.2113Z" fill="#52545B"></path><path d="M249.803 56.9704C246.263 57.2204 244.883 53.5304 246.223 50.7504C247.543 48.3004 250.893 48.8404 253.073 49.7504L252.393 51.0104C251.693 49.9304 249.553 49.8704 248.493 50.4004C247.103 51.0904 247.043 53.2704 247.563 54.5204C248.563 56.7504 252.563 56.0204 252.253 53.3504C251.348 53.2884 250.439 53.3287 249.543 53.4704H249.483L249.643 52.4004H253.643C253.803 54.9904 252.523 57.0904 249.803 56.9704Z" fill="#52545B"></path><path d="M255.674 56.811H255.273C255.513 56.621 255.493 56.411 255.503 56.041V51.231C255.503 50.861 255.503 50.6509 255.273 50.4609H260.973C260.923 50.7309 260.803 51.381 260.733 51.641C260.543 51.381 260.284 51.411 259.884 51.401H256.803V53.131H259.394C259.744 53.131 259.964 53.131 260.154 52.921V54.201C259.964 53.991 259.744 54.011 259.394 53.991H256.803V55.851H259.904C260.304 55.851 260.553 55.851 260.743 55.621C260.793 55.871 260.893 56.551 260.933 56.811H255.674Z" fill="#52545B"></path><path d="M263.08 56.811H262.68C262.91 56.621 262.89 56.411 262.91 56.041V51.231C262.91 50.861 262.91 50.6509 262.68 50.4609H264.37L267.89 54.821V51.251C267.89 50.871 267.89 50.6809 267.67 50.4709H269.27C269 50.6309 269.07 50.871 269.04 51.231V56.8309H267.92L264 51.991V56.051C264 56.431 264 56.611 264.23 56.821C264.03 56.831 263.34 56.821 263.08 56.811Z" fill="#52545B"></path><path d="M271.8 56.811H271.41C271.64 56.621 271.62 56.411 271.64 56.041V51.231C271.64 50.861 271.64 50.6509 271.41 50.4609H277.1C277.04 50.8581 276.96 51.252 276.86 51.641C276.67 51.381 276.41 51.411 276.02 51.401H272.95V53.131H275.53C275.89 53.131 276.1 53.131 276.29 52.921V54.201C276.1 53.991 275.89 54.011 275.53 53.991H272.95V55.851H276.05C276.44 55.851 276.69 55.851 276.88 55.621C276.88 55.871 277.03 56.551 277.06 56.811H271.8Z" fill="#52545B"></path><path d="M279.181 56.8125H278.781C279.021 56.6225 278.991 56.4125 279.011 56.0425V51.2324C279.011 50.8624 279.011 50.6524 278.781 50.4624C280.201 50.5424 283.201 50.1825 284.311 50.9425C284.605 51.1352 284.831 51.415 284.957 51.7427C285.083 52.0704 285.104 52.4294 285.015 52.7693C284.927 53.1092 284.735 53.4128 284.465 53.6376C284.195 53.8624 283.861 53.997 283.511 54.0225C283.8 54.0595 284.069 54.1868 284.281 54.3861C284.493 54.5855 284.637 54.8467 284.691 55.1325C284.821 55.5425 284.881 56.5624 285.201 56.8524H283.651L283.401 55.4525C283.161 54.1225 281.451 54.6625 280.311 54.5525V56.0625C280.311 56.4325 280.311 56.6424 280.531 56.8324L279.181 56.8125ZM282.181 53.5824C283.451 53.7224 284.281 52.5125 283.301 51.6625C282.771 51.2625 281.031 51.4425 280.301 51.4025V53.5824H282.181Z" fill="#52545B"></path><path d="M293.044 56.2113C293.174 56.5013 293.214 56.6514 293.424 56.7914H291.734C292.054 56.5514 291.484 55.7014 291.404 55.3914H288.104C288.044 55.6814 287.414 56.6114 287.804 56.7914H286.094C286.424 56.7914 288.434 51.3414 288.644 51.0314C288.854 50.7214 288.834 50.5814 288.644 50.4414H290.964C290.784 50.5914 290.864 50.7614 290.964 51.0314L293.044 56.2113ZM289.694 51.2113L288.404 54.4913H291.024L289.694 51.2113Z" fill="#52545B"></path><path d="M295.06 56.811H294.66C294.9 56.621 294.88 56.411 294.89 56.041V51.231C294.89 50.861 294.89 50.6509 294.66 50.4609H296.44C296.18 50.6409 296.22 50.861 296.2 51.231V55.761H298.88C299.28 55.761 299.55 55.811 299.74 55.541C299.74 55.801 299.84 56.541 299.87 56.801L295.06 56.811Z" fill="#52545B"></path><path d="M193.632 67.8115H193.242C193.482 67.6215 193.452 67.4114 193.472 67.0414V62.2314C193.472 61.8614 193.472 61.6514 193.242 61.4614C195.242 61.5214 198.122 61.0514 199.352 62.9014C199.594 63.2844 199.751 63.7147 199.813 64.1635C199.875 64.6123 199.839 65.0691 199.709 65.5031C199.58 65.9371 199.358 66.3383 199.06 66.6795C198.762 67.0207 198.395 67.2942 197.982 67.4814C196.962 67.9514 194.802 67.7915 193.632 67.8115ZM195.832 66.8115C196.273 66.8648 196.72 66.8002 197.127 66.6246C197.535 66.4489 197.889 66.1684 198.152 65.8115C198.313 65.5552 198.417 65.268 198.458 64.9686C198.499 64.6692 198.477 64.3643 198.392 64.0743C198.307 63.7842 198.161 63.5156 197.965 63.2858C197.768 63.0561 197.525 62.8705 197.252 62.7414C196.456 62.5207 195.626 62.4428 194.802 62.5114V66.8115H195.832Z" fill="#52545B"></path><path d="M201.991 67.811H201.602C201.842 67.621 201.812 67.411 201.832 67.041V62.231C201.832 61.861 201.832 61.6509 201.602 61.4609H207.302C207.252 61.7309 207.132 62.381 207.052 62.641C206.872 62.381 206.601 62.411 206.211 62.401H203.142V64.131H205.721C206.081 64.131 206.291 64.131 206.481 63.921V65.201C206.291 64.991 206.081 65.011 205.721 64.991H203.142V66.851H206.241C206.641 66.851 206.882 66.851 207.082 66.621L207.271 67.811H201.991Z" fill="#52545B"></path><path d="M217.373 67.9704C213.833 68.2204 212.453 64.5304 213.793 61.7504C215.113 59.3004 218.463 59.8404 220.643 60.7504L219.963 62.0104H219.913C219.213 60.9304 217.073 60.8704 216.013 61.4004C214.633 62.0904 214.563 64.2704 215.083 65.5204C216.083 67.7504 220.083 67.0204 219.773 64.3504C218.868 64.2887 217.959 64.3289 217.063 64.4704H217.003L217.163 63.4004H221.163C221.433 65.9904 220.133 68.0904 217.373 67.9704Z" fill="#52545B"></path><path d="M226.07 67.9504C221.33 68.2504 221.32 60.9504 226.07 61.2804C230.8 60.9904 230.8 68.2404 226.07 67.9504ZM226.07 66.9504C228.86 67.1804 228.88 62.1504 226.07 62.3804C223.22 62.1004 223.24 67.1104 226.07 66.8904V66.9504Z" fill="#52545B"></path><path d="M231.712 67.8115H231.312C231.552 67.6215 231.522 67.4114 231.542 67.0414V62.2314C231.542 61.8614 231.543 61.6514 231.312 61.4614C232.702 61.5414 235.562 61.2014 236.702 61.8814C236.985 62.0456 237.203 62.3009 237.321 62.6053C237.439 62.9097 237.45 63.2452 237.353 63.5568C237.255 63.8684 237.054 64.1375 236.783 64.32C236.513 64.5025 236.188 64.5877 235.863 64.5615C237.593 64.5615 238.442 66.4814 236.942 67.3814C235.972 68.0314 232.972 67.7615 231.712 67.8115ZM234.573 64.1915C235.633 64.3315 236.722 63.3315 235.682 62.5715C235.142 62.2015 233.523 62.3713 232.853 62.3313V64.1915H234.573ZM234.573 66.9014C235.823 67.0214 237.013 66.1014 235.873 65.2314C235.313 64.8714 233.563 65.0314 232.873 65.0014V66.9014H234.573Z" fill="#52545B"></path><path d="M239.801 67.811H239.391C239.631 67.621 239.601 67.411 239.621 67.041V62.231C239.621 61.861 239.621 61.6509 239.391 61.4609H241.171C240.931 61.6509 240.96 61.861 240.94 62.231V67.041C240.94 67.411 240.941 67.621 241.171 67.811H239.801Z" fill="#52545B"></path><path d="M243.592 67.811H243.191C243.431 67.621 243.402 67.411 243.422 67.041V62.231C243.422 61.861 243.421 61.6509 243.191 61.4609H248.892C248.842 61.7309 248.722 62.381 248.652 62.641C248.462 62.381 248.192 62.411 247.802 62.401H244.731V64.131H247.312C247.672 64.131 247.882 64.131 248.072 63.921V65.201C247.882 64.991 247.672 65.011 247.312 64.991H244.731V66.851H247.832C248.232 66.851 248.472 66.851 248.672 66.621L248.862 67.811H243.592Z" fill="#52545B"></path><path d="M250.994 67.8125H250.594C250.834 67.6225 250.814 67.4125 250.824 67.0425V62.2324C250.824 61.8624 250.824 61.6524 250.594 61.4624C252.024 61.5424 255.014 61.1825 256.124 61.9425C256.417 62.1352 256.643 62.415 256.769 62.7427C256.896 63.0704 256.916 63.4294 256.828 63.7693C256.74 64.1092 256.547 64.4128 256.277 64.6376C256.007 64.8624 255.674 64.997 255.324 65.0225C255.612 65.0595 255.882 65.1868 256.094 65.3861C256.306 65.5855 256.449 65.8467 256.504 66.1325C256.634 66.5425 256.704 67.5624 257.024 67.8524H255.464L255.214 66.4525C254.974 65.1225 253.264 65.6625 252.124 65.5525V67.0625C252.124 67.4325 252.124 67.6424 252.344 67.8324L250.994 67.8125ZM253.994 64.5824C255.274 64.7224 256.094 63.5125 255.114 62.6625C254.584 62.2625 252.854 62.4425 252.114 62.4025V64.5824H253.994Z" fill="#52545B"></path><path d="M259.133 67.811H258.723C258.963 67.621 258.943 67.411 258.953 67.041V62.231C258.953 61.861 258.953 61.6509 258.723 61.4609H260.423L263.943 65.821V62.251C263.943 61.871 263.943 61.6809 263.723 61.4709H265.333C265.063 61.6309 265.123 61.871 265.103 62.231V67.8309H263.983L260.063 62.991V67.051C260.063 67.431 260.063 67.611 260.293 67.821C260.083 67.831 259.393 67.821 259.133 67.811Z" fill="#52545B"></path><path d="M270.613 67.9504C265.873 68.2504 265.863 60.9504 270.613 61.2804C275.333 60.9904 275.313 68.2404 270.613 67.9504ZM270.613 66.9504C273.403 67.1804 273.423 62.1504 270.613 62.3804C267.803 62.1004 267.803 67.1104 270.613 66.8904V66.9504Z" fill="#52545B"></path><path d="M229.543 49.51L230.953 48H232.413L230.523 49.51H229.543Z" fill="#52545B"></path><path d="M183.931 43.89C177.841 43.81 171.231 42.8901 166.031 40.2001L169.211 31.84H169.401C171.201 36.27 178.511 36.9901 183.011 37.1501C187.011 36.9901 191.801 37.15 192.101 33.5C192.129 33.0152 192.031 32.5315 191.817 32.0954C191.603 31.6593 191.281 31.2855 190.881 31.01C188.401 29.51 186.181 29.7801 182.731 29.4001C175.861 28.8701 168.241 28.27 168.241 19.98C168.511 11.11 178.161 10.0301 185.921 9.92008C191.541 9.70008 196.481 11.59 201.841 12.09V12.1801L198.111 19.9401H197.921C195.821 16.6701 189.921 16.1601 185.921 16.0601C182.581 16.1801 178.191 16.1701 177.921 19.2001C178.181 22.8501 183.341 22.28 186.591 22.75C192.011 23.33 196.041 23.15 199.771 26.63C202.671 29.22 202.771 36.2201 199.951 39.1801C196.051 43.3201 190.241 43.76 183.931 43.89Z" fill="#52545B"></path><path d="M230.682 43.8931C222.962 43.8131 216.262 42.293 212.312 36.213C209.192 31.443 209.152 22.3731 212.312 17.6131C216.902 10.3431 226.882 9.51306 235.312 10.2331C239.412 10.4931 242.962 11.9831 246.942 12.1431V12.2331L242.882 19.9931H242.802C240.802 17.2131 235.562 16.803 231.952 16.713C227.462 16.713 223.532 17.7131 221.292 21.2831C219.522 24.0931 219.542 29.5331 221.182 32.3831C223.112 35.8131 226.612 36.8531 230.712 36.8831C235.712 37.0231 240.262 34.5731 240.262 29.2631H232.182C230.761 29.1365 229.332 29.3775 228.032 29.963L227.662 29.8631L228.662 23.593H249.882C250.902 36.613 243.802 44.0931 230.682 43.8931Z" fill="#52545B"></path><path d="M278.213 43.8931C270.493 43.8131 263.793 42.293 259.843 36.213C256.723 31.443 256.683 22.3731 259.843 17.6131C264.433 10.3431 274.403 9.51306 282.843 10.2331C286.943 10.4931 290.493 11.9831 294.473 12.1431V12.2331L290.413 19.9931H290.233C288.233 17.2131 282.993 16.803 279.383 16.713C274.893 16.713 270.963 17.7131 268.723 21.2831C266.953 24.0931 266.973 29.5331 268.613 32.3831C270.543 35.8131 274.043 36.8531 278.143 36.8831C283.143 37.0231 287.693 34.5731 287.693 29.2631H279.613C278.193 29.1365 276.764 29.3775 275.463 29.963L275.093 29.8631L276.093 23.593H297.313C298.433 36.613 291.283 44.0931 278.213 43.8931Z" fill="#52545B"></path><path d="M4.04235 60.4325C3.75461 60.3295 3.43901 60.3355 3.15539 60.4493C2.87177 60.5632 2.63972 60.7769 2.50304 61.0503C2.36637 61.3236 2.3346 61.6377 2.41369 61.9329C2.49278 62.2281 2.67721 62.4841 2.93224 62.6525C3.07629 62.733 3.23503 62.7839 3.39904 62.8024C3.56304 62.8208 3.72923 62.8063 3.88756 62.7598C4.0459 62.7132 4.19325 62.6355 4.32116 62.5312C4.44907 62.427 4.55494 62.2982 4.63244 62.1525C4.87244 61.5425 4.74235 60.6425 4.04235 60.4325ZM4.04235 61.9624C3.98778 62.0669 3.90321 62.1528 3.79943 62.2087C3.69565 62.2647 3.57738 62.2882 3.46007 62.2764C3.34277 62.2645 3.23173 62.2178 3.14123 62.1422C3.05072 62.0666 2.98485 61.9657 2.95226 61.8524C2.89766 61.6358 2.89766 61.4091 2.95226 61.1925C3.0048 61.0902 3.08614 61.0055 3.18615 60.9488C3.28616 60.8921 3.40052 60.8658 3.51525 60.8733C3.62998 60.8807 3.74004 60.9216 3.8319 60.9907C3.92376 61.0599 3.99344 61.1543 4.03234 61.2624C4.11839 61.4856 4.13585 61.7293 4.08239 61.9624H4.04235Z" fill="#BABAB3"></path><path d="M7.04039 62.2628H5.69029C6.0203 61.8228 6.74035 61.8329 7.00035 61.3129C7.32035 60.3129 5.85033 60.1528 5.23033 60.5328C5.21002 60.7156 5.21002 60.9 5.23033 61.0828C5.46033 60.8728 6.7305 60.6528 6.4005 61.2428C5.8605 61.6528 4.94045 61.8628 5.10045 62.7328C5.71045 62.8028 6.42045 62.7328 7.10045 62.7328C7.17045 62.6128 7.10045 62.4128 7.10045 62.2628H7.04039Z" fill="#BABAB3"></path><path d="M9.34101 62.2624H7.99092C8.32092 61.8224 9.05097 61.8324 9.30097 61.2624C9.62097 60.2624 8.16095 60.1124 7.53095 60.4924C7.5156 60.6754 7.5156 60.8594 7.53095 61.0424C7.77095 60.8324 9.03089 60.6124 8.71089 61.1924C8.17089 61.6124 7.24108 61.8224 7.41108 62.6924C8.02108 62.7624 8.72108 62.6924 9.41108 62.6924C9.47108 62.5724 9.41108 62.3723 9.41108 62.2223L9.34101 62.2624Z" fill="#BABAB3"></path><path d="M1.9502 62.2625H0.600347C0.930347 61.8225 1.6004 61.8324 1.9004 61.3324C2.2804 60.3324 0.780396 60.1425 0.150396 60.5325C0.124905 60.7183 0.124905 60.9066 0.150396 61.0924C0.370396 60.8624 1.64032 60.6524 1.32032 61.2324C0.790318 61.6524 -0.149731 61.8624 0.0202688 62.7324C0.640269 62.8024 1.34027 62.7324 2.02027 62.7324C2.08027 62.6124 2.02027 62.4125 2.02027 62.2625C2.02027 62.1125 1.9802 62.2625 1.9502 62.2625Z" fill="#BABAB3"></path><path d="M121.553 61.6516C121.46 61.5707 121.351 61.5095 121.233 61.4716C122.233 60.9616 121.233 60.1716 120.333 60.3716C119.703 60.3716 119.233 61.2016 119.973 61.4716C119.856 61.4961 119.749 61.5544 119.665 61.6393C119.581 61.7242 119.524 61.8318 119.5 61.949C119.477 62.0661 119.488 62.1877 119.533 62.2984C119.578 62.409 119.655 62.5041 119.753 62.5717C120.413 63.0917 122.283 62.7016 121.553 61.6516ZM120.213 60.9116C120.335 60.8477 120.47 60.8142 120.608 60.8142C120.746 60.8142 120.881 60.8477 121.003 60.9116C121.393 61.4316 119.803 61.4016 120.213 60.8916V60.9116ZM120.973 62.2516C120.836 62.3106 120.687 62.3342 120.538 62.3202C120.389 62.3062 120.247 62.2552 120.123 62.1717C119.633 61.3617 121.803 61.5816 120.973 62.2516Z" fill="#BABAB3"></path><path d="M116.081 60.4325C115.794 60.3295 115.478 60.3355 115.194 60.4493C114.911 60.5632 114.679 60.7769 114.542 61.0503C114.405 61.3236 114.374 61.6377 114.453 61.9329C114.532 62.2281 114.716 62.4841 114.971 62.6525C115.116 62.7332 115.276 62.7844 115.44 62.803C115.605 62.8215 115.772 62.807 115.931 62.7605C116.09 62.714 116.238 62.6363 116.367 62.5319C116.496 62.4275 116.603 62.2985 116.681 62.1525C116.757 62.0006 116.802 61.835 116.813 61.6655C116.824 61.496 116.801 61.326 116.745 61.1656C116.689 61.0053 116.601 60.8577 116.487 60.7318C116.373 60.6059 116.235 60.5041 116.081 60.4325ZM116.081 61.9624C116.026 62.0637 115.941 62.1464 115.838 62.2001C115.736 62.2537 115.62 62.2761 115.505 62.2644C115.39 62.2527 115.281 62.2074 115.191 62.1341C115.102 62.0609 115.036 61.9629 115.001 61.8524C114.937 61.6371 114.937 61.4078 115.001 61.1925C115.063 61.0622 115.171 60.9598 115.304 60.906C115.438 60.8522 115.587 60.8509 115.721 60.9025C116.241 61.0225 116.251 61.6024 116.121 61.9624H116.081Z" fill="#BABAB3"></path><path d="M119.083 62.2621C118.633 62.2621 118.183 62.2621 117.733 62.2621C118.063 61.8221 118.793 61.8321 119.043 61.3121C119.373 60.3121 117.903 60.1521 117.273 60.5221C117.258 60.7084 117.258 60.8956 117.273 61.082C117.503 60.872 118.773 60.642 118.453 61.242C117.913 61.652 116.983 61.862 117.153 62.742C117.773 62.792 118.463 62.742 119.153 62.742C119.213 62.622 119.153 62.4221 119.153 62.2721C119.153 62.1221 119.113 62.2621 119.083 62.2621Z" fill="#BABAB3"></path><path d="M114.001 62.2619H112.651C112.981 61.8219 113.651 61.8319 113.951 61.3319C114.311 60.3319 112.821 60.152 112.191 60.532C112.171 60.7147 112.171 60.8991 112.191 61.0819C112.421 60.8719 113.681 60.6419 113.371 61.2319C112.831 61.6519 111.901 61.8519 112.061 62.7319C112.671 62.8019 113.381 62.7319 114.061 62.7319C114.131 62.6219 114.061 62.4219 114.061 62.2719L114.001 62.2619Z" fill="#BABAB3"></path><path d="M30.9297 72.4219C31.3038 72.5167 31.6957 72.5167 32.0698 72.4219C31.6957 72.5167 31.3038 72.5167 30.9297 72.4219Z" fill="#BABAB3"></path><path d="M36.8827 71.0799L36.7125 71.02C36.8271 70.985 36.9294 70.9179 37.0072 70.8269C37.085 70.7358 37.1352 70.6244 37.152 70.5058C37.1688 70.3872 37.1514 70.2663 37.1019 70.1572C37.0524 70.0481 36.973 69.9555 36.8727 69.89C36.1523 69.6999 35.4029 69.6456 34.6627 69.73C34.5427 70.56 34.6627 71.57 34.6627 72.47C35.5127 72.37 37.1526 72.88 37.2926 71.66C37.3 71.5312 37.2636 71.4037 37.1891 71.2983C37.1146 71.193 37.0066 71.1159 36.8827 71.0799ZM35.2726 70.28C35.6326 70.35 36.3725 70.06 36.4925 70.53C36.3925 70.99 35.6226 70.72 35.2726 70.78V70.28ZM36.2726 71.91C35.9426 71.91 35.6126 71.91 35.2726 71.91C35.2726 71.73 35.2026 71.39 35.2726 71.28C35.6426 71.36 36.4226 71.07 36.5326 71.55C36.5386 71.6303 36.514 71.7098 36.464 71.7728C36.4139 71.8358 36.3421 71.8776 36.2626 71.89L36.2726 71.91Z" fill="#BABAB3"></path><path d="M32.2434 69.7923C31.4534 69.5323 30.3134 69.7122 30.0634 70.6222C29.941 70.9521 29.9482 71.3162 30.0837 71.641C30.2192 71.9658 30.4728 72.2271 30.7934 72.3722C31.1799 72.5599 31.623 72.5951 32.0344 72.471C32.4457 72.3468 32.7952 72.0725 33.0134 71.7023C33.0964 71.5275 33.1423 71.3373 33.1481 71.1438C33.1539 70.9504 33.1194 70.7579 33.0471 70.5784C32.9747 70.3989 32.8661 70.2364 32.7277 70.1011C32.5894 69.9658 32.4244 69.8607 32.2434 69.7923ZM32.4135 71.3822C32.2735 71.9322 31.5835 71.9722 31.1335 71.8422C30.9431 71.7508 30.7946 71.5904 30.7185 71.3935C30.6423 71.1965 30.644 70.9779 30.7233 70.7823C31.0733 69.8923 32.8035 70.2322 32.4135 71.3822Z" fill="#BABAB3"></path><path d="M55.0129 69.7923C54.2329 69.5323 53.083 69.7122 52.833 70.6222C52.7105 70.9521 52.7177 71.3162 52.8532 71.641C52.9887 71.9658 53.2423 72.2271 53.5629 72.3722C53.9495 72.5599 54.3926 72.5951 54.8039 72.471C55.2153 72.3468 55.5647 72.0725 55.7829 71.7023C55.8659 71.5275 55.9116 71.3373 55.9174 71.1438C55.9232 70.9504 55.889 70.7579 55.8166 70.5784C55.7443 70.3989 55.6356 70.2364 55.4973 70.1011C55.3589 69.9658 55.1939 69.8607 55.0129 69.7923ZM55.1828 71.3822C55.0428 71.9322 54.353 71.9722 53.903 71.8422C53.7127 71.7508 53.5642 71.5904 53.488 71.3935C53.4118 71.1965 53.4136 70.9779 53.4929 70.7823C53.8529 69.8923 55.5428 70.2322 55.1828 71.3822Z" fill="#BABAB3"></path><path d="M46.9206 71.4412C47.0844 71.3796 47.2253 71.2696 47.3249 71.1258C47.4245 70.9819 47.478 70.8111 47.478 70.6361C47.478 70.4612 47.4245 70.2905 47.3249 70.1466C47.2253 70.0028 47.0844 69.8926 46.9206 69.8311C46.2601 69.7207 45.5893 69.6838 44.9206 69.7211C44.8702 70.6337 44.8702 71.5485 44.9206 72.4611H45.5405V71.5612H46.2305C46.4405 71.8112 46.5805 72.1412 46.7705 72.4212C46.9905 72.5312 47.3005 72.4212 47.5505 72.4212L46.9106 71.4212L46.9206 71.4412ZM46.6606 70.8811C46.4356 70.9717 46.1909 71.0027 45.9504 70.9711H45.5505H45.5005V70.4012C45.6305 70.2812 46.1504 70.4012 46.4304 70.4012C46.7104 70.4012 46.9406 70.7011 46.6606 70.8911V70.8811Z" fill="#BABAB3"></path><path d="M28.6823 70.8319H27.1823V71.3519H28.0524C28.0524 71.5119 28.1424 71.7619 27.9824 71.8419C27.6602 71.9641 27.3045 71.9641 26.9824 71.8419C26.8244 71.778 26.6935 71.6615 26.6115 71.5121C26.5295 71.3627 26.5015 71.1896 26.5324 71.022C26.5324 70.102 27.8325 70.172 28.4125 70.532C28.4125 70.322 28.4925 70.0219 28.4125 69.8519C28.1855 69.7653 27.9452 69.718 27.7023 69.7119C27.4694 69.6534 27.2256 69.6533 26.9926 69.7116C26.7596 69.7698 26.5447 69.8846 26.3666 70.0458C26.1886 70.207 26.0531 70.4097 25.9721 70.6358C25.8911 70.8619 25.8673 71.1044 25.9025 71.3419C26.0225 72.6219 27.7725 72.802 28.6525 72.172C28.6986 71.7269 28.7084 71.2787 28.6823 70.8319Z" fill="#BABAB3"></path><path d="M50.9316 69.7313V71.3713C50.5549 70.803 50.1477 70.2555 49.7117 69.7313H49.0117V72.4613H49.6218V70.6013C50.0718 71.1913 50.4719 71.8214 50.9019 72.4214C51.0519 72.5214 51.2817 72.4214 51.4717 72.4214V69.6914L50.9316 69.7313Z" fill="#BABAB3"></path><path d="M42.7227 71.8927C42.4627 71.8927 41.8827 71.9826 41.7927 71.8326V71.3627H43.0527V70.7727C42.7227 70.7227 41.9427 70.8726 41.7927 70.7126C41.7927 70.5926 41.7128 70.3127 41.8528 70.2827H43.2227C43.3727 70.2827 43.2227 69.8327 43.2927 69.7227H41.1328V72.4528H43.3328V71.8927H42.7227Z" fill="#BABAB3"></path><path d="M38.8027 69.7227C38.7169 70.6334 38.6968 71.5491 38.7426 72.4626H39.4028V69.7327L38.8027 69.7227Z" fill="#BABAB3"></path><path d="M60.9832 69.7422H59.6133V72.4822C60.3933 72.4822 61.3531 72.6822 61.9631 72.0522C62.1413 71.8571 62.2599 71.6149 62.3044 71.3544C62.349 71.0939 62.3178 70.8259 62.2146 70.5826C62.1114 70.3393 61.9405 70.1308 61.7222 69.9818C61.5039 69.8328 61.2473 69.7497 60.9832 69.7422ZM61.5432 71.4922C61.3032 71.9722 60.7132 71.8522 60.2732 71.8622V70.3422C61.0932 70.2222 61.9232 70.5222 61.5432 71.4922Z" fill="#BABAB3"></path><path d="M78.9632 70.9703C78.5432 70.7103 77.9633 70.8103 77.5633 70.6103C77.1033 70.0303 78.8533 70.2503 79.0833 70.4803C79.0833 70.2903 79.1832 69.8404 78.9732 69.8104C78.6477 69.7207 78.3106 69.6802 77.9732 69.6904C76.9732 69.5904 76.2232 70.6204 77.2332 71.1704C77.6432 71.3304 78.1132 71.2504 78.5032 71.4304C78.9932 72.1904 77.0832 71.9203 76.7832 71.6303C76.7832 71.8603 76.7332 72.1403 76.7832 72.3303C77.1547 72.4646 77.5485 72.5257 77.9431 72.5103C78.8631 72.6303 79.8032 71.6603 78.9632 70.9703Z" fill="#BABAB3"></path><path d="M75.1029 71.8927H73.6828C73.5528 71.8927 73.6829 71.4927 73.6229 71.3627H74.8029C74.9229 71.3627 74.8029 70.9227 74.8529 70.7727H73.5829V70.2927H75.0829C75.0829 70.1527 75.1628 69.7427 75.0329 69.7227H72.9828C72.9019 70.6336 72.8821 71.549 72.923 72.4626H75.1229C75.1429 72.3426 75.2429 71.8927 75.1029 71.8927Z" fill="#BABAB3"></path><path d="M65.3909 71.8927C65.1409 71.8927 64.5607 71.9926 64.4707 71.8326V71.3627H65.7307V70.7727H64.5308C64.4008 70.7727 64.5307 70.4827 64.4707 70.3627C64.4107 70.2427 64.4708 70.2927 64.5408 70.2927H65.9009C66.0509 70.2927 65.9007 69.8327 65.9707 69.7227H63.8008V72.4626H66.0107V71.8927H65.3909Z" fill="#BABAB3"></path><path d="M83.0522 69.7917C82.1713 69.7107 81.286 69.6906 80.4023 69.7316C80.4023 69.9116 80.4023 70.0816 80.4023 70.2616C80.5423 70.4116 81.0723 70.2617 81.3323 70.3217C81.417 71.035 81.4405 71.7542 81.4023 72.4716H82.0723V70.3217H82.9922C83.1322 70.2617 83.0122 69.9517 83.0522 69.7917Z" fill="#BABAB3"></path><path d="M68.2224 71.7927V69.7927C68.2224 69.7227 68.2226 69.7227 68.1526 69.7227H67.5625V72.4626H69.4824V71.8527H68.2224V71.7927Z" fill="#BABAB3"></path><path d="M95.4301 70.7328C95.1801 69.3628 92.7801 69.3228 92.4301 70.6228C92.3514 70.8502 92.3315 71.0937 92.372 71.3308C92.4124 71.568 92.5119 71.7911 92.6615 71.9795C92.8111 72.168 93.0056 72.3156 93.2274 72.4088C93.4492 72.5021 93.6908 72.5379 93.9301 72.5128C94.1576 72.5334 94.387 72.4988 94.5983 72.4119C94.8096 72.325 94.9967 72.1884 95.1439 72.0137C95.2912 71.839 95.3941 71.6313 95.444 71.4084C95.4938 71.1854 95.4889 70.9536 95.4301 70.7328ZM94.7601 71.3828C94.6201 71.9428 93.9301 71.9828 93.4801 71.8428C93.0301 71.7028 92.9702 71.1729 93.0702 70.7829C93.4302 69.8929 95.1202 70.2328 94.8002 71.3828H94.7601Z" fill="#BABAB3"></path><path d="M89.7236 69.7422C89.2636 69.7422 88.8038 69.7422 88.3438 69.7422V72.4722C89.1737 72.4722 90.2437 72.6922 90.8037 71.9122C90.9494 71.7098 91.0372 71.4714 91.0574 71.2228C91.0776 70.9742 91.0294 70.7248 90.9182 70.5015C90.8071 70.2782 90.6373 70.0894 90.4268 69.9556C90.2162 69.8218 89.973 69.748 89.7236 69.7422ZM90.1638 71.6522C89.8638 71.9522 89.4037 71.8522 89.0137 71.8622V70.3422C89.4037 70.3422 89.8638 70.2522 90.1738 70.5522C90.3028 70.707 90.3724 70.9025 90.3706 71.104C90.3688 71.3055 90.2956 71.4998 90.1638 71.6522Z" fill="#BABAB3"></path><path d="M85.8918 69.782C85.6718 69.662 85.3318 69.7819 85.0618 69.7319C85.0618 69.7319 85.0017 69.732 84.9917 69.782C84.6317 70.682 84.2719 71.5719 83.9219 72.4719C84.1519 72.4719 84.4418 72.5319 84.6318 72.4719L84.8118 72.002C85.2004 71.9562 85.593 71.9562 85.9817 72.002C86.1317 72.092 86.1317 72.362 86.2217 72.522C86.3117 72.682 86.7317 72.522 86.9717 72.522L85.8918 69.782ZM85.0317 71.362L85.4316 70.302L85.8218 71.362H85.0317Z" fill="#BABAB3"></path><path d="M11.991 66.8902H11.2109C11.6209 66.5702 11.5811 66.2402 11.6111 65.6002V58.4601C11.6111 57.8201 11.6109 57.4602 11.2109 57.1702C13.6209 57.2402 17.5909 56.8802 19.7109 57.7302C23.9009 58.9002 23.8609 65.2202 19.7109 66.4102C17.9209 67.1302 14.091 66.8902 11.991 66.8902ZM15.991 64.7101C17.391 64.7101 18.6709 64.4703 19.4609 63.4503C19.69 63.1241 19.8387 62.7483 19.895 62.3537C19.9513 61.9591 19.9136 61.5569 19.7849 61.1796C19.6562 60.8024 19.4405 60.4609 19.1548 60.1829C18.8691 59.905 18.5218 59.6984 18.1411 59.5801C16.9577 59.2904 15.7364 59.1859 14.521 59.2702V64.7101H15.991Z" fill="#52545B"></path><path d="M31.3318 67.1423C24.7518 67.1423 25.8918 63.2124 25.8218 58.4424C25.8218 57.8024 25.8219 57.4423 25.4219 57.1523H29.1719C28.7619 57.4723 28.8017 57.8024 28.7817 58.4424V63.0524C28.7817 64.5524 29.7818 64.8423 31.3018 64.8723C32.8218 64.9023 33.8018 64.5624 33.8518 63.0524V58.4424C33.8518 57.8024 33.8517 57.4423 33.4517 57.1523H36.9717C36.5417 57.4723 36.5918 57.8024 36.5618 58.4424C36.5318 63.0424 37.8018 67.1423 31.3318 67.1423Z" fill="#52545B"></path><path d="M40.8035 66.8921H40.0234C40.4334 66.5721 40.3936 66.2421 40.4136 65.6021V58.462C40.4136 57.822 40.4134 57.4621 40.0234 57.1721C42.2434 57.2521 46.9033 56.9121 48.9333 57.4921C52.0833 58.0621 51.9335 62.6221 48.6235 62.6321C49.6235 62.8721 50.3535 63.2521 50.6235 64.2321C50.8635 64.9021 50.9935 66.4921 51.6235 66.9121H48.3035C48.0835 66.2721 47.9935 64.3721 47.3035 64.0221C46.6135 63.6721 44.0935 63.8221 43.3035 63.7521V65.582C43.3035 66.222 43.3034 66.5821 43.6934 66.8721L40.8035 66.8921ZM46.1235 61.6821C46.6639 61.7174 47.2041 61.6141 47.6934 61.3821C47.848 61.2777 47.9749 61.1369 48.0625 60.9722C48.1501 60.8074 48.1958 60.6237 48.1958 60.4371C48.1958 60.2505 48.1501 60.0668 48.0625 59.902C47.9749 59.7372 47.848 59.5964 47.6934 59.4921C46.9534 59.0021 44.2334 59.2522 43.2634 59.1922V61.6821H46.1235Z" fill="#52545B"></path><path d="M54.2812 66.891H53.2812C53.6813 66.661 53.7612 66.391 53.9912 65.891L57.4014 58.2109C57.5714 57.7409 57.7814 57.4209 57.4014 57.2109H62.4912C62.1112 57.4409 62.3312 57.7609 62.4912 58.2109L65.8813 65.891C66.1213 66.411 66.2013 66.681 66.6013 66.891H62.8013C63.3913 66.571 62.5614 65.431 62.4114 64.891H57.4114C57.2514 65.391 56.4113 66.501 57.0513 66.891H54.2812ZM58.1113 62.891H61.6614L59.8713 58.731L58.1113 62.891Z" fill="#52545B"></path><path d="M71.802 65.5719C71.802 66.2119 71.8019 66.5718 72.1919 66.8918H68.832C69.242 66.5718 69.2119 66.2418 69.2419 65.6018V58.4618C69.2419 57.8218 69.242 57.4619 68.832 57.1719H72.2019L77.4619 62.8518H77.542V58.5018C77.542 57.8618 77.5421 57.5018 77.1521 57.2118H80.522C80.112 57.5318 80.1421 57.8618 80.1121 58.5018V66.9718H77.802L71.9419 60.7318H71.802V65.5719Z" fill="#52545B"></path><path d="M89.8032 67.1532C84.8632 67.4532 82.0131 63.5032 84.2231 59.1532C86.4331 55.8532 91.3531 56.9331 94.7431 57.4931L93.5031 59.8431H93.4531C92.3831 58.6231 89.5533 58.6632 88.1433 59.2032C86.4433 59.8332 86.1433 62.2031 86.8833 63.6131C88.0233 65.6931 92.7131 65.5131 92.6831 62.6131C91.8431 62.6731 89.6831 62.4432 88.9631 62.8232H88.8532L89.1633 60.9232H95.6032C96.0532 64.7932 93.6232 67.3432 89.8032 67.1532Z" fill="#52545B"></path><path d="M104.053 67.1696C100.703 67.2896 97.8532 65.4996 97.9932 61.9696C97.8632 58.4596 100.733 56.7396 104.053 56.8496C107.373 56.7296 110.233 58.4696 110.113 61.9696C110.233 65.4796 107.413 67.2896 104.053 67.1696ZM104.053 64.9396C108.233 65.2396 108.263 58.7695 104.053 59.0795C99.8033 58.7895 99.8533 65.2196 104.053 64.9396Z" fill="#52545B"></path><path d="M72.5999 14.3633C72.5999 30.3633 71.9899 36.0233 60.8599 47.5133C49.7299 36.0233 49.1199 30.3233 49.1199 14.3633C48.1199 14.6533 47.1197 14.9733 46.1797 15.3633C46.1797 32.6433 47.6699 37.3633 60.8599 48.7533C74.0499 37.3833 75.5398 32.6433 75.5398 15.3633C74.5598 14.9733 73.5799 14.6533 72.5999 14.3633Z" fill="#52545B"></path><path fill-rule="evenodd" clip-rule="evenodd" d="M60.553 48.8906C58.6606 49.68 57.0162 50.9651 55.793 52.6106C56.7303 52.1624 57.754 51.9235 58.793 51.9106C58.7486 51.2886 58.8928 50.6677 59.2068 50.1289C59.5208 49.5901 59.9899 49.1586 60.553 48.8906Z" fill="#52545B"></path><path fill-rule="evenodd" clip-rule="evenodd" d="M61.1602 48.8906C63.0498 49.6798 64.6911 50.9651 65.9102 52.6106C64.9739 52.1593 63.9495 51.9203 62.9102 51.9106C62.9554 51.2897 62.8126 50.6696 62.5005 50.131C62.1884 49.5923 61.7214 49.1601 61.1602 48.8906Z" fill="#52545B"></path><path d="M44.8035 10.3203C33.4035 33.2303 58.5235 47.7102 58.5235 47.7102C41.1935 34.4302 43.0035 16.3203 44.8035 10.3203Z" fill="#BABAB3"></path><path d="M45.3032 36.1816C44.7769 35.3007 44.0738 34.5384 43.2383 33.9427C42.4028 33.347 41.453 32.9309 40.4487 32.7204C39.4444 32.51 38.4074 32.5099 37.4031 32.72C36.3987 32.9302 35.4489 33.3461 34.6133 33.9416C34.6133 33.9416 39.0033 31.0416 44.0833 37.4016C46.0218 40.0419 48.6615 42.0859 51.7031 43.3016C50.2531 42.2516 48.5532 41.0916 45.3032 36.1816Z" fill="#52545B"></path><path d="M44.4309 34.2129C43.5089 33.1177 42.316 32.2834 40.9709 31.793C39.3976 29.6704 37.0654 28.2374 34.4609 27.793C36.5624 27.7989 38.6184 28.4067 40.3853 29.5444C42.1521 30.6822 43.5559 32.3022 44.4309 34.2129Z" fill="#BABAB3"></path><path d="M76.8899 10.3203C88.2899 33.2303 63.1797 47.7102 63.1797 47.7102C80.5297 34.4302 78.7199 16.3203 76.8899 10.3203Z" fill="#BABAB3"></path><path d="M76.4236 36.1816C76.9499 35.3007 77.6528 34.5384 78.4883 33.9427C79.3238 33.347 80.2735 32.9309 81.2778 32.7204C82.2821 32.51 83.3191 32.5099 84.3235 32.72C85.3278 32.9302 86.2779 33.3461 87.1135 33.9416C87.1135 33.9416 82.7336 31.0416 77.6536 37.4016C75.7116 40.0426 73.0681 42.0866 70.0234 43.3016C71.4734 42.2516 73.1736 41.0916 76.4236 36.1816Z" fill="#52545B"></path><path d="M77.3008 34.2129C78.2228 33.1177 79.4157 32.2834 80.7607 31.793C82.331 29.6718 84.6596 28.2389 87.2607 27.793C85.161 27.8008 83.1075 28.4095 81.3425 29.5471C79.5776 30.6848 78.175 32.3037 77.3008 34.2129Z" fill="#BABAB3"></path><path d="M51.9329 8.24182C51.4929 23.6118 53.133 35.8619 60.863 46.5619C68.623 35.8219 70.233 23.5619 69.793 8.17188C67.0115 9.52096 63.9622 10.2276 60.8708 10.2397C57.7795 10.2519 54.7248 9.56906 51.9329 8.24182Z" fill="#52545B"></path><path d="M66.1438 4.29135C65.945 3.8929 65.6277 3.5657 65.2356 3.35446C64.8436 3.14323 64.3958 3.05824 63.9536 3.1113C63.7629 2.88446 63.5265 2.70039 63.2598 2.57102C62.9931 2.44165 62.7023 2.36988 62.406 2.36044C62.1098 2.35101 61.8149 2.40407 61.5406 2.51621C61.2662 2.62835 61.0186 2.79709 60.8137 3.01132C60.6098 2.79732 60.3629 2.62875 60.0894 2.51669C59.8158 2.40464 59.5218 2.35162 59.2263 2.36106C58.9309 2.37049 58.6409 2.44222 58.375 2.5715C58.1092 2.70079 57.8735 2.88471 57.6836 3.1113C55.1336 2.8413 54.4536 6.4813 55.4636 8.1113C55.7636 8.6113 55.9438 8.70132 56.0938 8.76132C57.641 9.12171 59.2251 9.29962 60.8137 9.29135C62.399 9.29911 63.9798 9.12121 65.5237 8.76132C65.6837 8.70132 65.8538 8.6113 66.1538 8.1113C66.4535 7.51888 66.6087 6.86406 66.607 6.20017C66.6052 5.53628 66.4466 4.8822 66.1438 4.29135ZM56.0738 8.29135C55.9138 8.35135 55.4037 7.64135 55.3137 6.29135C55.225 5.66636 55.3741 5.03081 55.7315 4.51047C56.0889 3.99012 56.6285 3.62282 57.2437 3.48129C57.3237 3.48129 57.3537 3.5913 57.2437 3.6113C55.1037 3.9313 55.0837 7.15134 56.0437 8.15134C56.0527 8.15552 56.0607 8.16158 56.0672 8.16904C56.0736 8.1765 56.0782 8.18523 56.0811 8.19467C56.0839 8.20411 56.0848 8.21395 56.0835 8.22373C56.0822 8.2335 56.0789 8.24291 56.0738 8.25131V8.29135ZM57.0237 8.39133C55.0237 8.05133 55.4337 4.39135 57.0237 3.91135C57.1737 3.84135 57.2936 3.84137 57.1936 4.06137C56.969 4.66805 56.8802 5.31655 56.9336 5.96127C56.9861 6.8517 57.2612 7.71474 57.7337 8.47128C57.4943 8.44931 57.257 8.4092 57.0237 8.35129V8.39133ZM58.1238 8.51132C57.9438 8.57132 57.2338 7.24139 57.1238 5.70139C57.0238 3.24139 59.1239 1.8013 60.6739 3.4913C60.7239 3.5613 60.6137 3.64138 60.5637 3.57138C59.1137 1.98138 57.1737 3.40139 57.2537 5.70139C57.3012 6.66101 57.5902 7.59307 58.0938 8.41135C58.1034 8.41804 58.1112 8.42699 58.1165 8.43747C58.1217 8.44795 58.1242 8.45957 58.1238 8.47128V8.51132ZM58.8938 8.59128C57.3338 7.86128 57.0138 4.52129 58.4138 3.35129C59.3238 2.71129 60.5839 3.35128 60.1739 4.22128C59.8879 4.81296 59.7212 5.45522 59.6836 6.1113C59.6036 8.1113 60.1138 8.67136 60.1138 8.67136C59.7032 8.70241 59.2905 8.66181 58.8938 8.55136V8.59128ZM60.8238 8.78134C59.8238 8.57134 59.9138 4.4213 60.8238 3.9913C61.7238 4.3913 61.8037 8.5013 60.8037 8.7413L60.8238 8.78134ZM62.7337 8.59128C62.3381 8.68835 61.9286 8.7155 61.5237 8.67136C61.5237 8.67136 62.0236 8.1413 61.9436 6.1113C61.9124 5.45425 61.7455 4.81076 61.4536 4.22128C61.0436 3.32128 62.3036 2.71129 63.2136 3.35129C64.6236 4.48129 64.2937 7.82136 62.7337 8.55136V8.59128ZM63.5537 8.52133C63.3037 8.52133 64.3638 7.27139 64.3338 5.70139C64.4238 3.40139 62.4837 1.98138 61.0337 3.57138C60.6037 3.67138 61.4537 2.72132 62.5337 2.76132C63.8737 2.85132 64.4837 4.37139 64.4737 5.70139C64.4588 6.70038 64.1378 7.67065 63.5537 8.48129V8.52133ZM64.6138 8.39133C64.3958 8.43285 64.1752 8.45953 63.9536 8.47128C64.4211 7.71308 64.6926 6.85051 64.7437 5.96127C64.8033 5.3164 64.7143 4.66654 64.4837 4.06137C64.3937 3.84137 64.4838 3.84135 64.6638 3.91135C66.2038 4.31135 66.5838 8.01129 64.6138 8.35129V8.39133ZM65.6138 8.28134C65.5538 8.35134 65.4537 8.28138 65.5137 8.19138C66.5137 7.19138 66.4538 3.97134 64.3238 3.65134C64.2338 3.65134 64.2638 3.49133 64.3238 3.52133C66.6338 3.81133 66.6938 7.1813 65.6538 8.2413L65.6138 8.28134Z" fill="#52545B"></path><path d="M61.1504 2.61206L60.8403 2.09204L61.0703 1.89209L61.5303 2.19214L61.4402 1.82214L61.5603 1.48206L61.0803 1.81213L60.8604 1.58203L61.1604 1.08203L60.8103 1.22205L60.4702 1.08203L60.7703 1.58203L60.5503 1.81213L60.0703 1.48206L60.1902 1.82214L60.1003 2.19214L60.5603 1.89209L60.7903 2.09204L60.4802 2.61206C60.5986 2.67992 60.7093 2.76038 60.8103 2.85205C60.9171 2.76313 61.0308 2.68288 61.1504 2.61206Z" fill="#52545B"></path><path d="M65.5731 9.21178C65.5613 9.16742 65.533 9.12926 65.494 9.10509C65.455 9.08092 65.4081 9.07257 65.3632 9.08177C63.8676 9.42634 62.3378 9.6008 60.8031 9.60179C59.2684 9.6002 57.7387 9.42575 56.243 9.08177C56.1981 9.07257 56.1512 9.08092 56.1122 9.10509C56.0731 9.12926 56.0449 9.16742 56.0331 9.21178C56.0272 9.23413 56.0258 9.25752 56.0292 9.28038C56.0326 9.30325 56.0407 9.32518 56.0528 9.34484C56.065 9.36449 56.081 9.3814 56.1 9.39464C56.1189 9.40788 56.1406 9.41719 56.1632 9.42186C57.6856 9.76919 59.2416 9.94697 60.8031 9.95189C62.3646 9.94697 63.9206 9.76919 65.443 9.42186C65.4664 9.41869 65.4889 9.4103 65.5087 9.39745C65.5285 9.3846 65.5453 9.36759 65.5577 9.34752C65.5702 9.32745 65.578 9.30481 65.5807 9.28136C65.5834 9.2579 65.5807 9.23413 65.5731 9.21178Z" fill="#52545B"></path><path opacity="0.35" d="M67.4917 21.4125C67.4217 23.6325 65.2919 25.4124 63.4219 24.1224C63.6811 24.4143 64.0124 24.6327 64.3829 24.7556C64.7533 24.8785 65.1496 24.9016 65.5318 24.8225C64.9818 26.8225 61.6718 27.2325 60.7718 25.3125C59.4918 26.5825 56.7018 26.1725 56.0218 24.5525C56.4403 24.6945 56.8916 24.7095 57.3186 24.5956C57.7457 24.4817 58.1296 24.244 58.4219 23.9125C54.3019 26.3625 52.4219 18.2525 56.8919 17.9125C56.5291 17.8504 56.1566 17.8792 55.8077 17.9961C55.4587 18.113 55.1441 18.3143 54.8919 18.5824C54.5619 16.0324 58.5619 13.5824 60.3519 15.8924C60.1778 15.5633 59.9233 15.2834 59.6121 15.0788C59.3009 14.8743 58.9431 14.7517 58.5718 14.7224C58.8667 14.4352 59.2161 14.2103 59.5997 14.0609C59.9832 13.9115 60.3928 13.8408 60.8042 13.8529C61.2157 13.865 61.6206 13.9598 61.9947 14.1315C62.3687 14.3032 62.7043 14.5483 62.9817 14.8524C62.5412 14.8801 62.1181 15.0345 61.7632 15.2971C61.4084 15.5597 61.137 15.9192 60.9817 16.3324C63.3917 12.6324 69.4717 18.0625 65.4317 20.4525C65.7464 20.3779 66.0413 20.2354 66.2952 20.035C66.5491 19.8347 66.7562 19.5812 66.9019 19.2925C67.3073 19.9237 67.5127 20.6625 67.4917 21.4125Z" fill="white"></path><path d="M60.6411 31.6734C60.5611 32.9034 60.7409 34.6134 59.7009 35.3034C59.2809 35.6034 59.3411 35.5734 58.8511 35.5034C58.4944 35.4953 58.1444 35.6004 57.8511 35.8034C57.5811 35.9234 57.1911 35.9334 57.1211 35.9934C57.5147 36.0482 57.915 36.0279 58.301 35.9334C58.9271 35.7976 59.5749 35.7976 60.2009 35.9334C59.7909 36.0334 58.7911 36.3035 58.3411 36.4435C58.1411 36.5135 58.7009 36.4434 59.4709 36.2834C60.2409 36.1234 60.3611 36.2834 60.9211 36.2834C61.4353 36.2201 61.9568 36.2678 62.4509 36.4234C62.9009 36.5734 63.0111 36.5034 62.9211 36.4234C62.8311 36.3434 62.4311 36.1434 62.1411 36.0434C61.8769 35.9908 61.6097 35.9541 61.3411 35.9334C61.1811 35.9334 61.5411 35.8135 61.9211 35.6935C62.5611 35.5835 62.831 35.8733 63.531 35.8333C63.671 35.8333 65.411 35.8333 64.751 35.7133C64.1003 35.6741 63.4545 35.5771 62.821 35.4234C61.541 34.9534 61.821 32.8534 61.751 31.4834C61.3716 31.4655 60.993 31.5304 60.6411 31.6734Z" fill="white"></path><path d="M63.3208 23.6621C63.7589 23.6897 64.1972 23.6135 64.6003 23.4397C65.0035 23.2659 65.3601 22.9996 65.6409 22.6621C64.7729 23.1912 63.7358 23.37 62.7407 23.1621C63.2909 22.8419 63.7331 22.3649 64.0107 21.7921C64.3036 21.8315 64.6016 21.7951 64.8765 21.6865C65.1513 21.578 65.3938 21.4009 65.5808 21.1721C65.3874 21.3011 65.1683 21.3866 64.9387 21.4229C64.7091 21.4591 64.4744 21.4452 64.2507 21.3821C64.5834 20.7891 64.7815 20.1303 64.8308 19.4521C64.5408 21.0021 62.2507 23.662 61.1907 22.972C61.0907 22.792 61.1908 22.5121 61.8708 21.6921C62.2422 21.2562 62.4876 20.7272 62.5808 20.1621C64.2908 19.6021 64.3008 17.3621 64.3008 17.3621C64.2709 17.8104 64.1086 18.2398 63.8345 18.5958C63.5603 18.9519 63.1866 19.2186 62.7607 19.3621C62.7607 19.3621 62.7609 17.432 61.8909 16.832C62.163 17.3691 62.3121 17.9601 62.3276 18.562C62.3432 19.1639 62.2247 19.7617 61.9807 20.3121C61.9724 20.1408 61.9154 19.9753 61.8162 19.8353C61.7169 19.6954 61.5798 19.5867 61.4209 19.5221C61.5979 19.9521 61.6598 20.4208 61.6008 20.8821C61.5453 21.2624 61.366 21.6138 61.0908 21.8821C60.1408 22.8221 59.0907 20.6621 59.4507 18.2821C59.4507 18.2821 58.8708 19.0721 59.3708 21.2821C58.858 21.0828 58.3901 20.7828 57.9951 20.3998C57.6001 20.0168 57.2858 19.5586 57.0708 19.0521C57.0708 19.0521 57.2707 20.7921 59.7607 22.1521C59.7607 22.1521 59.9907 22.2221 60.2107 23.0621C60.4307 23.9021 59.4908 24.062 58.5208 23.462C58.2297 23.2448 57.9896 22.9668 57.8169 22.6473C57.6442 22.3278 57.5431 21.9746 57.5208 21.6121C57.4325 22.1312 57.4913 22.6647 57.6907 23.1521C57.1873 23.0394 56.7137 22.8212 56.3008 22.5121C56.782 23.086 57.3919 23.5382 58.0808 23.832C58.9808 24.322 60.0808 24.8321 60.2808 25.4321C60.4008 25.8221 60.7109 26.512 60.6709 29.962C61.0218 29.8681 61.3582 29.7269 61.6709 29.5421C61.6809 26.9721 61.7208 23.6821 63.3208 23.6621Z" fill="white"></path><path d="M57.8008 33.2734C57.8008 33.3534 58.1208 33.2734 58.1208 33.2734C58.2096 32.8725 58.4404 32.5173 58.7708 32.2734C58.3518 32.4985 58.013 32.8478 57.8008 33.2734Z" fill="white"></path><path d="M62.523 31.4531C62.913 31.5231 62.2329 32.003 62.2229 32.223C62.2129 32.443 62.4629 32.4931 62.4729 32.4531C62.4829 32.4131 62.4731 32.2931 62.6731 31.9431C62.8731 31.5931 63.003 31.703 62.993 31.613C62.983 31.523 62.523 31.4531 62.523 31.4531Z" fill="white"></path><path d="M65.3528 31.463C65.2728 31.463 65.3527 31.2431 65.2427 31.2031H65.1328C65.1328 31.2731 65.2926 31.4031 65.2126 31.5031C65.1326 31.6031 65.3528 31.7631 65.3528 31.6331C65.3417 31.5769 65.3417 31.5191 65.3528 31.463Z" fill="white"></path><path d="M65.5737 30.6819C65.5737 30.6819 65.5737 30.6018 65.5737 30.5818C65.5737 30.5618 65.5736 30.3018 65.4736 30.4618C65.3736 30.6218 65.4736 30.5318 65.4736 30.6018C65.463 30.5625 65.463 30.5211 65.4736 30.4818C65.3436 30.2918 65.3936 30.6619 65.4736 30.7019C65.5536 30.7419 65.4738 30.5919 65.3338 30.5419C65.2217 30.4911 65.0963 30.4773 64.9758 30.5024C64.8554 30.5276 64.7462 30.5905 64.6638 30.6819C64.719 30.5864 64.7983 30.5071 64.8938 30.4519C64.7938 30.3519 64.7637 30.2418 64.7937 30.2118C64.8237 30.1818 64.7938 30.0718 64.6738 29.8518C64.6037 29.7199 64.4957 29.612 64.3638 29.5419C63.9638 28.7719 64.0338 29.4918 64.0938 29.7418C64.0247 29.6282 63.9771 29.5027 63.9536 29.3718C63.0936 28.9018 61.1837 30.0718 60.4837 30.2318C60.21 30.3085 59.9219 30.3186 59.6436 30.2612C59.3652 30.2038 59.1048 30.0806 58.8838 29.9019C58.6355 29.6953 58.4477 29.4255 58.3403 29.121C58.233 28.8164 58.2099 28.4884 58.2737 28.1719C57.7737 29.1719 58.1638 29.6619 58.1638 29.6619L57.9038 29.5719C58.1938 30.5719 59.5637 30.6719 59.5637 30.6719C59.5637 30.6719 59.7337 30.4818 59.8037 30.4618C59.4037 30.9018 59.7237 30.8518 59.0137 31.4618C58.5137 31.9818 58.1438 31.8319 58.1138 31.9119C58.0968 32.1178 58.0165 32.3134 57.8838 32.4718C57.7544 32.6569 57.5916 32.8164 57.4038 32.9419C57.4038 32.9419 57.3038 32.9919 57.4038 33.1819C57.5038 33.3719 57.6038 33.3418 57.6038 33.3418C57.8396 32.8738 58.1894 32.4728 58.6211 32.1757C59.0528 31.8785 59.5524 31.695 60.0737 31.6418C61.3437 31.4818 60.9138 30.5719 60.9138 30.5719C61.0326 30.6516 61.1161 30.7736 61.1477 30.9131C61.1793 31.0525 61.1565 31.1988 61.0838 31.3219C63.9338 30.8719 64.3838 32.3918 64.3838 32.3918C64.8338 32.2418 64.5338 32.0419 64.3838 31.8219C64.3688 31.7024 64.3688 31.5813 64.3838 31.4618C64.3838 31.3818 64.5437 31.3119 64.5637 31.1919C64.5637 31.3019 64.3838 31.4419 64.4238 31.5419C64.4638 31.6419 64.4236 31.7819 64.4736 31.9019C64.5236 32.0219 64.5437 31.9019 64.5437 31.8219C64.5574 31.8607 64.5574 31.9031 64.5437 31.9419C64.5437 32.0119 64.6438 31.9419 64.6138 31.7919C64.5735 31.6582 64.5735 31.5155 64.6138 31.3818C64.6738 31.2818 64.6137 31.1418 64.7437 31.1118C64.8737 31.0818 64.9638 30.9919 65.1138 31.0519C65.1989 31.0763 65.2798 31.1133 65.3538 31.1619C65.3538 31.1619 65.3538 31.3318 65.4238 31.3818C65.6238 31.5818 65.4838 31.0619 65.3338 31.0319C65.4338 31.0319 65.4038 30.8919 65.4038 30.8219C65.4038 30.7519 65.5038 30.9518 65.5838 30.9818C65.6638 31.0118 65.6638 30.9819 65.6638 30.9119C65.6638 30.8419 65.6537 30.7919 65.5737 30.6819ZM64.5237 30.6819H64.4436L64.3137 30.5219C64.3137 30.5219 64.3437 30.5918 64.5237 30.7218V30.6819ZM64.6138 30.9319C64.6138 30.9919 64.4037 30.9318 64.2937 30.8418C64.2456 30.8902 64.208 30.9481 64.1836 31.0118C64.0736 31.0118 64.1836 31.2518 64.1836 31.1418C64.1836 31.0318 64.2937 31.3519 64.2337 31.4119C64.1737 31.4719 64.1738 31.6219 64.1538 31.6919C63.8236 31.4179 63.443 31.2106 63.0337 31.0818C62.8937 31.0218 62.8937 30.8319 63.0337 30.6719C63.0875 30.5959 63.1165 30.505 63.1165 30.4119C63.1165 30.3187 63.0875 30.2279 63.0337 30.1519C63.085 30.1978 63.126 30.2541 63.1541 30.317C63.1822 30.3799 63.1968 30.448 63.1968 30.5168C63.1968 30.5857 63.1822 30.6538 63.1541 30.7167C63.126 30.7796 63.085 30.8359 63.0337 30.8818C63.3838 30.8258 63.722 30.7109 64.0337 30.5419C64.0337 30.5419 64.0336 30.5418 64.2136 30.7518C64.2136 30.7518 64.2137 30.7518 64.2737 30.8418C64.3437 30.9018 64.4537 30.9719 64.5437 30.9119C64.6337 30.8519 64.4636 30.8018 64.4336 30.7518C64.4036 30.7018 64.6438 30.9418 64.6138 30.9718V30.9319Z" fill="white"></path><path d="M137.913 36.7826C137.975 30.8403 137.641 24.9004 136.913 19.0026V0.412636C136.913 -0.117364 136.052 -0.157364 136.062 0.412636V18.9926C135.333 24.8937 134.999 30.837 135.062 36.7826C134.998 42.7283 135.332 48.6716 136.062 54.5727V73.1626C136.078 73.2642 136.129 73.3567 136.207 73.4236C136.285 73.4905 136.385 73.5273 136.487 73.5273C136.59 73.5273 136.69 73.4905 136.767 73.4236C136.845 73.3567 136.897 73.2642 136.913 73.1626V54.5727C137.641 48.6715 137.975 42.7283 137.913 36.7826Z" fill="#52545B"></path></svg> 